<svg width="519" height="98" viewBox="0 0 519 98" fill="none" xmlns="http://www.w3.org/2000/svg">
<path d="M8.344 88.568C7.14933 88.1413 5.95467 83.576 4.76 74.872C3.56533 66.168 2.66933 56.6533 2.072 46.328C1.47467 36.0027 1.09067 26.4453 0.92 17.656C0.749333 8.86666 1.048 4.13066 1.816 3.448C3.52267 2.50933 9.496 1.86933 19.736 1.52799C30.0613 1.18666 40.1307 1.31466 49.944 1.91199C59.8427 2.42399 65.0907 3.23466 65.688 4.34399C66.7973 6.136 67.1813 12.024 66.84 22.008C66.4987 31.992 65.8587 37.496 64.92 38.52C64.4933 38.9467 62.8293 39.3307 59.928 39.672C57.112 39.928 54.0827 40.0987 50.84 40.184C47.6827 40.2693 44.7387 40.3973 42.008 40.568C39.2773 40.6533 37.8267 40.7387 37.656 40.824C37.2293 40.9947 37.016 43.896 37.016 49.528C37.016 49.9547 37.912 50.296 39.704 50.552C41.5813 50.808 43.5013 51.0213 45.464 51.192C47.4267 51.3627 48.4507 51.576 48.536 51.832C48.8773 52.344 48.9627 53.6667 48.792 55.8C48.6213 57.9333 48.3227 59.768 47.896 61.304C47.7253 62.2427 47.128 62.84 46.104 63.096C45.1653 63.2667 43.8853 63.352 42.264 63.352C40.6427 63.352 39.448 63.4373 38.68 63.608C37.656 63.7787 36.9307 65.6133 36.504 69.112C36.1627 72.5253 35.7787 76.2373 35.352 80.248C35.0107 84.2587 34.328 86.776 33.304 87.8C32.1947 88.9093 29.8907 89.6347 26.392 89.976C22.9787 90.3173 19.5653 90.36 16.152 90.104C12.7387 89.7627 10.136 89.2507 8.344 88.568ZM75.451 84.344C74.171 83.7467 72.9763 79.2667 71.867 70.904C70.843 62.5413 70.075 53.496 69.563 43.768C69.051 34.04 68.8377 25.08 68.923 16.888C69.0937 8.61066 69.6057 4.21599 70.459 3.70399C72.8483 2.68 77.2003 1.99733 83.515 1.656C89.915 1.22933 96.059 1.31466 101.947 1.91199C107.92 2.50933 111.334 3.576 112.187 5.112C112.87 6.22133 113.04 10.0187 112.699 16.504C112.358 22.9893 111.803 29.7733 111.035 36.856C110.352 43.9387 109.84 50.552 109.499 56.696C109.158 62.7547 109.371 65.912 110.139 66.168C111.504 66.8507 113.168 67.1067 115.131 66.936C117.179 66.68 119.312 66.6373 121.531 66.808C123.835 66.9787 125.286 67.576 125.883 68.6C126.992 70.392 127.206 72.8667 126.523 76.024C125.926 79.096 124.603 81.4 122.555 82.936C120.678 84.5573 112.998 85.5813 99.515 86.008C86.1177 86.3493 78.0963 85.7947 75.451 84.344ZM127.923 89.464C126.472 88.696 126.131 83.9173 126.899 75.128C127.752 66.3387 128.99 56.824 130.611 46.584C132.232 36.344 134.11 26.9573 136.243 18.424C138.376 9.89066 140.083 5.49599 141.363 5.24C143.752 4.38667 147.934 3.53333 153.907 2.67999C159.966 1.82666 166.238 1.39999 172.723 1.39999C179.294 1.39999 183.688 2.08266 185.907 3.448C188.296 4.89866 190.984 12.1093 193.971 25.08C196.958 38.0507 199.304 51.0213 201.011 63.992C202.718 76.8773 203.144 84.216 202.291 86.008C201.523 87.544 198.707 88.7813 193.843 89.72C188.979 90.6587 184.499 91.128 180.403 91.128C176.392 91.128 173.747 91.0427 172.467 90.872C171.614 90.4453 170.718 88.8667 169.779 86.136C168.926 83.4053 168.2 80.12 167.603 76.28L155.315 76.92C155.144 78.1147 154.931 79.7787 154.675 81.912C154.504 83.96 154.291 85.624 154.035 86.904C153.864 88.0987 153.608 89.0373 153.267 89.72C152.584 91 148.872 91.5973 142.131 91.512C135.39 91.512 130.654 90.8293 127.923 89.464ZM158.131 59.512L165.555 58.872C165.384 57.4213 165.214 55.416 165.043 52.856C164.872 50.296 164.702 47.9067 164.531 45.688C164.36 43.384 164.19 41.1653 164.019 39.032C163.848 36.8987 163.635 35.192 163.379 33.912C163.208 32.632 162.995 31.992 162.739 31.992C162.483 32.0773 162.184 32.76 161.843 34.04C161.587 35.32 161.288 37.0693 160.947 39.288C160.606 41.5067 160.264 43.768 159.923 46.072C159.667 48.2907 159.326 50.7227 158.899 53.368C158.558 56.0133 158.302 58.0613 158.131 59.512ZM204.721 50.168C203.441 49.5707 202.502 46.7973 201.905 41.848C201.308 36.8133 201.052 31.48 201.137 25.848C201.222 20.216 201.521 15.0533 202.033 10.36C202.63 5.58133 203.313 3.14933 204.081 3.064C208.177 2.46666 215.302 1.99733 225.457 1.656C235.612 1.31466 245.681 1.35733 255.665 1.784C265.649 2.12533 271.281 3.02133 272.561 4.47199C273.926 5.83733 274.865 9.89066 275.377 16.632C275.974 23.288 276.145 29.8587 275.889 36.344C275.633 42.744 275.121 46.6693 274.353 48.12C273.756 49.2293 271.665 50.168 268.081 50.936C264.497 51.6187 261.084 52.0027 257.841 52.088L252.977 52.344C254.172 74.0187 254.086 85.4533 252.721 86.648C251.526 87.5867 248.198 88.3547 242.737 88.952C237.276 89.5493 233.564 89.464 231.601 88.696C230.833 88.44 230.15 87.032 229.553 84.472C229.041 81.8267 228.657 78.712 228.401 75.128C228.145 71.544 227.932 68.0027 227.761 64.504C227.676 61.0053 227.633 58.0187 227.633 55.544L227.505 51.96C215.814 52.3867 208.22 51.7893 204.721 50.168ZM284.82 91.128C282.516 89.7627 280.852 81.9547 279.828 67.704C278.804 53.4533 278.548 39.3733 279.06 25.464C279.572 11.4693 280.553 3.91733 282.004 2.808C284.393 2.38133 287.167 2.08266 290.324 1.91199C293.481 1.65599 297.321 1.52799 301.844 1.52799C306.367 1.44266 310.804 1.82666 315.156 2.67999C319.508 3.44799 323.732 4.59999 327.828 6.13599C331.924 7.58666 335.465 9.848 338.452 12.92C341.439 15.992 343.444 19.6613 344.468 23.928C345.748 29.2187 346.26 33.784 346.004 37.624C345.748 41.3787 344.98 44.4933 343.7 46.968C342.42 49.3573 341.012 51.2347 339.476 52.6C338.025 53.9653 336.745 54.904 335.636 55.416L333.844 56.184C334.271 56.44 334.783 56.7813 335.38 57.208C336.063 57.6347 337.087 58.616 338.452 60.152C339.903 61.688 341.012 63.352 341.78 65.144C342.633 66.8507 343.06 69.1547 343.06 72.056C343.145 74.9573 342.463 77.9867 341.012 81.144C339.135 85.0693 335.423 88.184 329.876 90.488C324.415 92.7067 318.655 93.944 312.596 94.2C306.623 94.5413 300.991 94.4133 295.7 93.816C290.409 93.2187 286.783 92.3227 284.82 91.128ZM307.604 27C307.092 27.1707 306.793 29.6453 306.708 34.424C306.623 39.1173 306.921 41.6773 307.604 42.104C307.945 42.2747 308.5 42.4027 309.268 42.488C310.036 42.488 310.932 42.4453 311.956 42.36C312.98 42.1893 313.961 41.8053 314.9 41.208C315.924 40.5253 316.649 39.672 317.076 38.648C318.1 36.4293 318.399 34.2533 317.972 32.12C317.631 29.9013 316.991 28.536 316.052 28.024C315.113 27.4267 313.577 27 311.444 26.744C309.396 26.488 308.116 26.5733 307.604 27ZM307.604 61.176C307.092 61.432 306.793 63.9493 306.708 68.728C306.623 73.4213 306.921 75.9387 307.604 76.28C308.031 76.6213 308.841 76.8347 310.036 76.92C311.231 76.92 312.553 76.6213 314.004 76.024C315.455 75.3413 316.479 74.36 317.076 73.08C318.015 70.776 318.313 68.5573 317.972 66.424C317.631 64.2053 316.991 62.7973 316.052 62.2C315.113 61.6027 313.577 61.2187 311.444 61.048C309.396 60.792 308.116 60.8347 307.604 61.176ZM359.291 87.416C356.987 86.648 355.024 83.4053 353.403 77.688C351.782 71.8853 350.63 65.1013 349.947 57.336C349.35 49.5707 348.966 41.848 348.795 34.168C348.71 26.4027 348.88 19.7467 349.307 14.2C349.819 8.65333 350.502 5.624 351.355 5.112C353.659 3.66133 360.016 2.63733 370.427 2.03999C380.838 1.35733 390.95 1.18666 400.763 1.52799C410.576 1.86933 416.038 2.63733 417.147 3.83199C418 4.68533 418.384 8.39733 418.299 14.968C418.299 21.5387 418 28.8347 417.403 36.856C416.806 44.792 415.867 52.6853 414.587 60.536C413.392 68.3867 412.155 73.8907 410.875 77.048C409.766 79.608 407.632 81.8267 404.475 83.704C401.318 85.496 397.691 86.8187 393.595 87.672C389.584 88.5253 385.403 89.1227 381.051 89.464C376.699 89.72 372.603 89.6773 368.763 89.336C364.923 88.9093 361.766 88.2693 359.291 87.416ZM390.523 36.856C390.267 36.344 388.091 36.1307 383.995 36.216C379.984 36.3013 377.595 36.6427 376.827 37.24C376.23 37.5813 376.059 41.336 376.315 48.504C376.656 55.5867 377.424 59.384 378.619 59.896C379.728 60.664 381.648 60.8347 384.379 60.408C387.11 59.896 388.731 58.7867 389.243 57.08C389.926 55.288 390.395 51.576 390.651 45.944C390.992 40.312 390.95 37.2827 390.523 36.856Z" fill="#1EE5AF"/>
<path d="M444.323 53.24C427.256 36.9413 418.936 27.9813 419.363 26.36C419.96 24.3973 422.008 21.368 425.507 17.272C429.006 13.0907 432.846 9.336 437.027 6.008C441.208 2.59466 444.238 1.10133 446.115 1.52799C448.419 2.04 456.867 9.37866 471.459 23.544C485.198 9.208 492.792 2.25333 494.243 2.67999C496.206 3.192 499.192 5.06933 503.203 8.312C507.214 11.5547 510.798 15.1387 513.955 19.064C517.198 22.904 518.563 25.72 518.051 27.512C517.624 29.3893 510.84 36.856 497.699 49.912C511.011 63.8213 517.752 71.6293 517.923 73.336C518.179 74.9573 516.6 77.7307 513.187 81.656C509.774 85.5813 506.062 89.1227 502.051 92.28C498.126 95.5227 495.566 97.144 494.371 97.144C493.091 97.144 484.686 90.232 469.155 76.408C454.051 89.976 445.603 96.8453 443.811 97.016C442.19 97.1867 439.8 95.9067 436.643 93.176C433.486 90.4453 430.67 87.5013 428.195 84.344C425.806 81.1013 424.611 78.8827 424.611 77.688C424.611 76.4933 431.182 68.344 444.323 53.24Z" fill="#FF99C8"/>
</svg>
