<svg width="128" height="25" viewBox="0 0 128 25" fill="none" xmlns="http://www.w3.org/2000/svg">
<path d="M6.9245 13.56C2.65783 9.48533 0.577833 7.24533 0.6845 6.84C0.833833 6.34933 1.34583 5.592 2.2205 4.568C3.09517 3.52267 4.05517 2.584 5.1005 1.752C6.14583 0.898665 6.90317 0.525331 7.3725 0.631998C7.9485 0.759999 10.0605 2.59467 13.7085 6.136C17.1432 2.552 19.0418 0.813332 19.4045 0.919998C19.8952 1.048 20.6418 1.51733 21.6445 2.328C22.6472 3.13867 23.5432 4.03467 24.3325 5.016C25.1432 5.976 25.4845 6.68 25.3565 7.128C25.2498 7.59733 23.5538 9.464 20.2685 12.728C23.5965 16.2053 25.2818 18.1573 25.3245 18.584C25.3885 18.9893 24.9938 19.6827 24.1405 20.664C23.2872 21.6453 22.3592 22.5307 21.3565 23.32C20.3752 24.1307 19.7352 24.536 19.4365 24.536C19.1165 24.536 17.0152 22.808 13.1325 19.352C9.3565 22.744 7.2445 24.4613 6.7965 24.504C6.39117 24.5467 5.79383 24.2267 5.0045 23.544C4.21517 22.8613 3.51117 22.1253 2.8925 21.336C2.29517 20.5253 1.9965 19.9707 1.9965 19.672C1.9965 19.3733 3.63917 17.336 6.9245 13.56Z" fill="#FF99C8"/>
<path d="M26.623 13.72C26.0257 13.08 25.7057 11.8213 25.663 9.944C25.6417 8.04533 25.7483 6.30667 25.983 4.728C26.239 3.14933 26.4417 2.31733 26.591 2.232C27.3803 1.54933 28.5323 1.08 30.047 0.823999C31.583 0.567999 33.055 0.503998 34.463 0.631998C35.8923 0.759999 37.1723 0.951999 38.303 1.208C39.4337 1.44267 40.1057 1.66667 40.319 1.88C40.895 2.54133 40.799 3.832 40.031 5.752C39.8603 6.17867 38.7617 6.33867 36.735 6.232C34.943 6.12533 33.9403 6.15733 33.727 6.328C33.6417 6.392 33.6097 6.47733 33.631 6.584C33.7163 6.88267 34.2497 7.10667 35.231 7.256C36.2337 7.384 37.2683 7.544 38.335 7.736C39.4017 7.90667 40.0523 8.184 40.287 8.568C40.543 9.08 40.8097 10.1253 41.087 11.704C41.3857 13.2827 41.5563 14.8827 41.599 16.504C41.663 18.1253 41.4603 19.3627 40.991 20.216C40.543 20.92 39.4763 21.4427 37.791 21.784C36.1057 22.104 34.4203 22.2427 32.735 22.2C31.071 22.1573 29.8977 21.9973 29.215 21.72C28.767 21.528 28.351 21.1867 27.967 20.696C27.583 20.2053 27.3057 19.704 27.135 19.192C26.9643 18.68 26.847 18.1893 26.783 17.72C26.7403 17.2293 26.815 16.8987 27.007 16.728C27.135 16.6 27.423 16.5573 27.871 16.6C28.319 16.6427 28.8097 16.7387 29.343 16.888C29.8977 17.016 30.4523 17.144 31.007 17.272C31.583 17.3787 32.0417 17.4533 32.383 17.496C32.7243 17.5173 32.927 17.4533 32.991 17.304C33.0123 17.1333 32.863 16.9627 32.543 16.792C32.2443 16.6213 31.839 16.4507 31.327 16.28C30.8363 16.088 30.303 15.8853 29.727 15.672C29.1723 15.4587 28.607 15.1813 28.031 14.84C27.455 14.4987 26.9857 14.1253 26.623 13.72ZM42.9303 12.792C42.6103 12.6427 42.3756 11.9493 42.2263 10.712C42.0769 9.45333 42.0129 8.12 42.0343 6.712C42.0556 5.304 42.1303 4.01333 42.2583 2.84C42.4076 1.64533 42.5783 1.03733 42.7703 1.016C43.7943 0.866666 45.5756 0.749333 48.1143 0.664C50.6529 0.578666 53.1703 0.589333 55.6663 0.695999C58.1623 0.781333 59.5703 1.00533 59.8903 1.368C60.2316 1.70933 60.4663 2.72267 60.5943 4.408C60.7436 6.072 60.7863 7.71467 60.7222 9.336C60.6583 10.936 60.5303 11.9173 60.3383 12.28C60.1889 12.5573 59.6663 12.792 58.7703 12.984C57.8743 13.1547 57.0209 13.2507 56.2103 13.272L54.9943 13.336C55.2929 18.7547 55.2716 21.6133 54.9303 21.912C54.6316 22.1467 53.7996 22.3387 52.4343 22.488C51.0689 22.6373 50.1409 22.616 49.6503 22.424C49.4583 22.36 49.2876 22.008 49.1383 21.368C49.0103 20.7067 48.9143 19.928 48.8503 19.032C48.7863 18.136 48.7329 17.2507 48.6903 16.376C48.6689 15.5013 48.6583 14.7547 48.6583 14.136L48.6263 13.24C45.7036 13.3467 43.8049 13.1973 42.9303 12.792ZM64.203 21.816C63.5203 21.5813 62.9337 20.408 62.443 18.296C61.9523 16.184 61.6217 13.912 61.451 11.48C61.3017 9.02667 61.2697 6.776 61.355 4.728C61.4403 2.65867 61.6537 1.53867 61.995 1.368C62.8697 0.834665 64.235 0.578665 66.091 0.599998C67.9683 0.621332 69.099 0.845332 69.483 1.272C69.7817 1.37867 69.835 3.928 69.643 8.92C69.451 13.8907 69.3657 16.44 69.387 16.568C69.4723 16.9947 69.835 17.2293 70.475 17.272C71.115 17.2933 71.595 17.1227 71.915 16.76C72.043 16.6107 72.075 15.768 72.011 14.232C71.947 12.6747 71.8403 11.0107 71.691 9.24C71.5417 7.46933 71.4457 5.816 71.403 4.28C71.3603 2.744 71.435 1.89067 71.627 1.72C72.0537 1.35733 73.2163 1.12267 75.115 1.016C77.0137 0.887999 78.347 1.00533 79.115 1.368C79.6057 1.624 79.947 3.17067 80.139 6.008C80.331 8.824 80.3097 11.7467 80.075 14.776C79.8617 17.784 79.4883 19.64 78.955 20.344C78.4217 21.0267 77.1417 21.56 75.115 21.944C73.0883 22.3067 71.0083 22.4773 68.875 22.456C66.763 22.4133 65.2057 22.2 64.203 21.816ZM83.502 21.88C83.1607 21.6667 82.83 20.8347 82.51 19.384C82.19 17.912 81.9233 16.1947 81.71 14.232C81.518 12.2693 81.3687 10.3173 81.262 8.376C81.1767 6.43467 81.166 4.77067 81.23 3.384C81.3153 1.976 81.4753 1.21867 81.71 1.112C82.2007 0.770665 83.4273 0.599998 85.39 0.599998C87.3527 0.578665 89.39 0.727999 91.502 1.048C93.614 1.34667 95.0753 1.74133 95.886 2.232C96.7607 2.72267 97.4967 3.72533 98.094 5.24C98.6913 6.75467 99.0007 8.504 99.022 10.488C99.0647 12.472 98.6913 14.5093 97.902 16.6C97.454 17.752 96.7073 18.7547 95.662 19.608C94.6167 20.44 93.486 21.048 92.27 21.432C91.0753 21.7947 89.8593 22.0613 88.622 22.232C87.406 22.3813 86.3393 22.4133 85.422 22.328C84.5047 22.2427 83.8647 22.0933 83.502 21.88ZM88.43 10.104C88.302 10.1467 88.2807 10.7653 88.366 11.96C88.4727 13.1547 88.6007 13.7947 88.75 13.88C88.8353 13.9227 88.9953 13.944 89.23 13.944C89.486 13.944 89.7527 13.9227 90.03 13.88C90.3073 13.816 90.574 13.7093 90.83 13.56C91.1073 13.3893 91.2993 13.176 91.406 12.92C91.5767 12.3653 91.6087 11.832 91.502 11.32C91.4167 10.7867 91.2567 10.4453 91.022 10.296C90.7873 10.168 90.3287 10.0827 89.646 10.04C88.9847 9.99733 88.5793 10.0187 88.43 10.104ZM101.234 21.272C100.807 21.0373 100.455 19.256 100.178 15.928C99.9007 12.5787 99.7727 9.272 99.794 6.008C99.8153 2.744 99.9967 1.05867 100.338 0.952C101.405 0.610666 103.165 0.514666 105.618 0.664C108.071 0.813332 109.319 1.13333 109.362 1.624C109.383 1.85867 109.373 2.95733 109.33 4.92C109.287 6.86133 109.223 8.984 109.138 11.288C109.074 13.5707 108.989 15.6933 108.882 17.656C108.775 19.6187 108.669 20.696 108.562 20.888C108.349 21.336 107.239 21.6027 105.234 21.688C103.229 21.7733 101.895 21.6347 101.234 21.272ZM113.042 22.104C112.466 21.912 111.975 21.1013 111.57 19.672C111.164 18.2213 110.876 16.5253 110.706 14.584C110.556 12.6427 110.46 10.712 110.418 8.792C110.396 6.85067 110.439 5.18667 110.546 3.8C110.674 2.41333 110.844 1.656 111.058 1.528C111.634 1.16533 113.223 0.909332 115.826 0.759998C118.428 0.589333 120.956 0.546666 123.41 0.631998C125.863 0.717332 127.228 0.909332 127.506 1.208C127.719 1.42133 127.815 2.34933 127.794 3.992C127.794 5.63467 127.719 7.45867 127.569 9.464C127.42 11.448 127.186 13.4213 126.866 15.384C126.567 17.3467 126.258 18.7227 125.938 19.512C125.66 20.152 125.127 20.7067 124.338 21.176C123.548 21.624 122.642 21.9547 121.618 22.168C120.615 22.3813 119.57 22.5307 118.482 22.616C117.394 22.68 116.37 22.6693 115.41 22.584C114.45 22.4773 113.66 22.3173 113.042 22.104ZM120.85 9.464C120.786 9.336 120.242 9.28267 119.218 9.304C118.215 9.32533 117.618 9.41067 117.426 9.56C117.276 9.64533 117.234 10.584 117.298 12.376C117.383 14.1467 117.575 15.096 117.874 15.224C118.151 15.416 118.631 15.4587 119.314 15.352C119.996 15.224 120.402 14.9467 120.53 14.52C120.7 14.072 120.818 13.144 120.882 11.736C120.967 10.328 120.956 9.57067 120.85 9.464Z" fill="#1EE5AF"/>
</svg>
